<svg xmlns="http://www.w3.org/2000/svg" width="123.5" height="127.488" viewBox="0 0 123.5 127.488">
  <g id="Group_101" data-name="Group 101" transform="translate(-2220.329 -12456.721)">
    <g id="Group_100" data-name="Group 100">
      <path id="Path_315" data-name="Path 315" d="M2339.745,12531.394h-1.908v-17.184a8.07,8.07,0,0,0-3.422-6.594v-2.339a6.163,6.163,0,0,0-6.155-6.156h-1.425l5.451-8a5.89,5.89,0,0,0-1.549-8.175l-36.984-25.2a5.884,5.884,0,0,0-8.176,1.549l-31.922,46.843h-8.883l2.143-21.7a.646.646,0,0,1,.405-.54,13.813,13.813,0,0,0,6.738-5.475.64.64,0,0,1,.6-.283l13.933,1.376a1.816,1.816,0,1,0,.357-3.614l-13.933-1.377a4.253,4.253,0,0,0-4.026,1.948,10.151,10.151,0,0,1-4.954,4.025,4.244,4.244,0,0,0-2.738,3.582l-2.179,22.052H2238.8l3.389-34.312a2.251,2.251,0,0,1,2.461-2.019l28.156,2.781a1.817,1.817,0,0,0,.357-3.616l-28.156-2.78a5.89,5.89,0,0,0-6.433,5.276l-2.732,27.656h-4.653a6.163,6.163,0,0,0-6.155,6.156v1.6a8.082,8.082,0,0,0-4.71,7.337v61.925a8.083,8.083,0,0,0,8.074,8.074h101.36a8.083,8.083,0,0,0,8.074-8.074v-17.185h1.908a4.089,4.089,0,0,0,4.084-4.084v-19.389A4.089,4.089,0,0,0,2339.745,12531.394Zm-11.485-28.639h0a2.524,2.524,0,0,1,2.522,2.522v.925a8.164,8.164,0,0,0-1.019-.066h-7.708l2.3-3.381Zm-39.68-41.416a2.234,2.234,0,0,1,1.441-.944,2.3,2.3,0,0,1,.423-.039,2.239,2.239,0,0,1,1.263.391l36.984,25.2a2.254,2.254,0,0,1,.593,3.127l-11.625,17.058h-2.79l5.7-8.362a4.248,4.248,0,0,0,.2-4.506,10.139,10.139,0,0,1-1.217-6.266,4.249,4.249,0,0,0-1.838-4.078l-19.173-13.064a4.25,4.25,0,0,0-4.467-.22,10.159,10.159,0,0,1-6.277,1.159,4.3,4.3,0,0,0-4.12,1.832l-22.833,33.5h-2.79Zm.8,30.85a14.989,14.989,0,0,0-14.934,13.946h-9.208l21.439-31.459h0a.649.649,0,0,1,.531-.286.476.476,0,0,1,.083.007,13.817,13.817,0,0,0,8.537-1.576.637.637,0,0,1,.665.04l19.173,13.065a.642.642,0,0,1,.281.6,13.8,13.8,0,0,0,1.655,8.521.645.645,0,0,1-.035.674l-7.094,10.409h-6.159A14.989,14.989,0,0,0,2289.38,12492.188Zm11.291,13.947h-22.583a11.338,11.338,0,0,1,22.583,0Zm-72-.858a2.525,2.525,0,0,1,2.522-2.523h4.294l-.334,3.381h-6.482Zm-4.71,8.933a4.446,4.446,0,0,1,4.441-4.441h101.36a4.446,4.446,0,0,1,4.441,4.441v5.04H2223.962Zm110.242,61.925a4.447,4.447,0,0,1-4.441,4.441H2228.4a4.447,4.447,0,0,1-4.441-4.441v-5.041h9.8a1.816,1.816,0,1,0,0-3.633h-9.8v-44.578H2334.2v8.511h-17.272a13.8,13.8,0,0,0-12.394,7.765c-.007.016-.016.031-.024.046-.019.039-.035.08-.053.119a13.632,13.632,0,0,0-.687,1.757v0a13.782,13.782,0,0,0,13.158,17.865H2334.2v8.511H2245.39a1.816,1.816,0,0,0,0,3.633H2334.2Zm5.992-21.269a.451.451,0,0,1-.451.451h-22.813a10.154,10.154,0,0,1-8.919-5.313c-.078-.144-.153-.29-.224-.437-.143-.3-.271-.6-.385-.91a10.148,10.148,0,0,1,0-6.969q.171-.467.385-.91.107-.223.224-.437a10.154,10.154,0,0,1,8.919-5.313h22.813a.452.452,0,0,1,.451.45v19.389Z" fill="#ba2027"/>
    </g>
  </g>
</svg>
