<svg xmlns="http://www.w3.org/2000/svg" width="95.021" height="95.14" viewBox="0 0 95.021 95.14">
  <g id="Group_28" data-name="Group 28" transform="translate(-10755.992 -5633.731)">
    <path id="Path_84" data-name="Path 84" d="M10804.347,5728.871c-16.206-.6-28.751-6.46-38.3-18.412-.819-1.027-2.3-2.186-.582-3.5,1.6-1.219,2.48.24,3.355,1.34a43.021,43.021,0,0,0,28.43,16.5,43.989,43.989,0,0,0,14.85-86.681c-16.813-3.283-31.169,2.02-42.513,15.027-.408.467-.741,1-1.16,1.456-.762.828-1.433,2.045-2.845,1.021-1.444-1.048-.866-2.21.048-3.147,3.023-3.1,5.864-6.46,9.246-9.12a45.587,45.587,0,0,1,24.313-9.4,47.437,47.437,0,0,1,12.882,93.9C10809.19,5728.364,10806.263,5728.625,10804.347,5728.871Z" fill="#047efd"/>
    <path id="Path_85" data-name="Path 85" d="M10762.237,5679.332c1.656.116,2.622.241,3.588.242,13.266.013,26.531-.007,39.8.032,1.438,0,3.708-.586,3.719,1.6s-2.21,1.878-3.818,1.879q-20.016,0-40.028,0h-3.145c.907,1.055,1.391,1.692,1.948,2.253q5.25,5.281,10.532,10.532c.931.926,1.88,2.024.685,3.154-1.094,1.033-2.254.313-3.223-.664q-7.626-7.677-15.311-15.3c-1.355-1.335-1.295-2.367.046-3.683,5.146-5.056,10.226-10.179,15.323-15.284.926-.927,2-1.868,3.168-.7s.235,2.244-.693,3.169q-5.191,5.175-10.364,10.371C10763.872,5677.528,10763.323,5678.158,10762.237,5679.332Z" fill="#047efd"/>
  </g>
</svg>
