<svg xmlns="http://www.w3.org/2000/svg" width="89.593" height="94.385" viewBox="0 0 89.593 94.385">
  <g id="Group_33" data-name="Group 33" transform="translate(-10773.142 -4374.767)">
    <g id="Group_32" data-name="Group 32">
      <path id="Path_97" data-name="Path 97" d="M10810.921,4384.243a7.47,7.47,0,0,1,2.56-6.467,6.668,6.668,0,0,1,4.564-1.626c4.089.086,6.385,2.749,6.956,7.986,1.86.661,3.758,1.178,5.521,1.989,10.768,4.953,17.15,13.33,19.178,24.991a38,38,0,0,1,.433,5.6c.069,3,.089,5.994,0,8.987a34.08,34.08,0,0,0,5.077,19.111c.713,1.17,1.366,2.377,2.045,3.568a5.677,5.677,0,0,1-4.867,8.511q-34.438.016-68.878,0a5.707,5.707,0,0,1-4.9-8.562c1.725-3.1,3.481-6.2,4.906-9.445a29.1,29.1,0,0,0,2.2-11.886c-.01-4.255-.074-8.515.1-12.764a32.59,32.59,0,0,1,24.146-29.745C10810.269,4384.416,10810.562,4384.337,10810.921,4384.243Z" fill="#ed1c24"/>
      <path id="Path_98" data-name="Path 98" d="M10862.727,4407.234c0,.192.019.612,0,1.031a2.189,2.189,0,0,1-2.173,2.211,2.156,2.156,0,0,1-2.133-2.242,25.713,25.713,0,0,0-1.326-7.909,31.917,31.917,0,0,0-17.219-19.782,26.35,26.35,0,0,0-4.12-1.4,2.261,2.261,0,0,1-1.837-2.654,2.165,2.165,0,0,1,2.748-1.646,29.731,29.731,0,0,1,11.518,5.629,36.255,36.255,0,0,1,14.4,24.776C10862.661,4405.829,10862.668,4406.42,10862.727,4407.234Z" fill="#ed1c24"/>
      <path id="Path_99" data-name="Path 99" d="M10773.147,4406.984a36.346,36.346,0,0,1,24.137-31.628,17.735,17.735,0,0,1,2.024-.534,2.159,2.159,0,0,1,2.637,1.607,2.281,2.281,0,0,1-1.683,2.691,37.046,37.046,0,0,0-6,2.31c-9.34,5.211-14.815,13.2-16.6,23.73a23.746,23.746,0,0,0-.2,3.011,2.2,2.2,0,0,1-2.166,2.3,2.18,2.18,0,0,1-2.148-2.231C10773.132,4407.824,10773.147,4407.4,10773.147,4406.984Z" fill="#ed1c24"/>
      <path id="Path_100" data-name="Path 100" d="M10817.957,4460.406q4.069,0,8.14,0c1.47,0,1.988.75,1.475,2.1a10.3,10.3,0,0,1-19.253.037c-.532-1.375-.038-2.13,1.414-2.134C10812.474,4460.4,10815.215,4460.406,10817.957,4460.406Z" fill="#ed1c24"/>
    </g>
  </g>
</svg>
