<svg xmlns="http://www.w3.org/2000/svg" width="98.505" height="93.569" viewBox="0 0 98.505 93.569">
  <g id="Group_34" data-name="Group 34" transform="translate(-11380.685 -4376.641)">
    <path id="Path_101" data-name="Path 101" d="M11479.189,4427.787c-.306,1.6-.592,3.206-.918,4.8a46.869,46.869,0,0,1-90.616,4.949c-.169-.524-.271-1.07-.447-1.786,3.2,0,6.221-.076,9.236.069.554.026,1.288.848,1.562,1.468,3.539,8,8.9,14.458,16.68,18.483,13.91,7.195,27.581,6.367,40.018-3.179,12.131-9.312,17.078-22.062,13.67-37.046-3.477-15.288-13.507-24.909-28.847-28.26-16.326-3.566-33.614,5.133-40.512,19.837l13.324,13.306-.2.536h-31.455v-31.824l10.75,11.394c.593-.545.73-.584.8-.676.187-.252.348-.523.511-.791a45.074,45.074,0,0,1,26.105-20.312c3.232-.985,6.629-1.427,9.95-2.117h7.2c.612.128,1.218.307,1.836.377,19.359,2.17,36.028,17.228,40.2,36.334.414,1.9.772,3.814,1.158,5.721Z" fill="#ed1c24"/>
    <path id="Path_102" data-name="Path 102" d="M11452.015,4433.836l-3.843,6.246c-1.936-1.129-3.726-2.154-5.5-3.208-5.471-3.253-10.947-6.5-16.384-9.805a2.517,2.517,0,0,1-1.212-1.633c-.079-7.936-.054-15.873-.054-23.973h7.215c.046.7.134,1.429.135,2.154.01,5.421.05,10.842-.029,16.262a3.09,3.09,0,0,0,1.743,3.15c5.511,3.183,10.938,6.512,16.391,9.792C11450.953,4433.107,11451.405,4433.432,11452.015,4433.836Z" fill="#ed1c24"/>
  </g>
</svg>
