<svg xmlns="http://www.w3.org/2000/svg" width="70.46" height="94.838" viewBox="0 0 70.46 94.838">
  <g id="Group_27" data-name="Group 27" transform="translate(-10759.961 -5168.484)">
    <path id="Path_82" data-name="Path 82" d="M10792.037,5168.484h6.323a6.982,6.982,0,0,0,1.176.362,28.851,28.851,0,0,1,14.062,5.694c8.413,6.4,12.7,14.91,12.694,25.541,0,.935-.482,2.021.976,2.653,2.292.994,3.159,2.967,3.153,5.452-.032,13.411-.012,26.822-.018,40.232a14.811,14.811,0,0,1-3.691,9.818c-2.372,2.806-5.577,4.093-8.963,5.086h-45.1c-.451-.149-.9-.325-1.355-.441-6.311-1.592-11.208-7.294-11.258-13.613q-.164-20.845.059-41.691a5.791,5.791,0,0,1,2.247-4.168c1.66-1.069,1.844-2.185,1.9-3.881.407-13.126,6.519-22.681,18.405-28.276C10785.562,5169.878,10788.895,5169.383,10792.037,5168.484Zm3.254,37.783q-14.117,0-28.232,0c-2.786,0-2.9.115-2.9,2.792q-.006,19.278,0,38.556c.01,7.374,4.263,11.608,11.641,11.613q19.383.015,38.767,0c.771,0,1.546-.018,2.313-.091a10.473,10.473,0,0,0,9.329-10.225q0-19.909-.035-39.819c0-2.7-.122-2.823-2.863-2.825Q10809.3,5206.26,10795.291,5206.267Zm-18.85-4.139c-.521-5.676.761-10.666,4.317-14.911a18.675,18.675,0,0,1,13.893-6.9,18.286,18.286,0,0,1,12.856,4.324c5.445,4.492,7.471,10.473,6.975,17.478h7.7c.372-10.571-3.32-19.14-12.149-24.9-9.569-6.24-19.647-6.391-29.31-.265-9.052,5.739-12.861,14.392-12.31,25.166Zm4.044-.09h29.927c.4-6.365-1.326-11.691-6.743-15.211a14.218,14.218,0,0,0-16.065-.247C10781.911,5190.044,10780.018,5195.426,10780.485,5202.038Z" fill="#047efd"/>
  </g>
</svg>
