<svg xmlns="http://www.w3.org/2000/svg" width="87.596" height="87.612" viewBox="0 0 87.596 87.612">
  <g id="Group_633" data-name="Group 633" transform="translate(-240.314 -1993.042)">
    <path id="Path_761" data-name="Path 761" d="M301.432,2057.274c-7.505,4.671-14.636,1.588-17.949-2.857a12.948,12.948,0,0,1,18.08-18.149c4.41,3.225,7.594,10.283,2.818,18.166.759.64,1.666,1.314,2.466,2.1,2.611,2.557,5.189,5.149,7.768,7.74,1.191,1.2,1.155,1.461-.266,2.878-1.455,1.45-1.647,1.484-2.862.264C308.141,2064.057,304.812,2060.685,301.432,2057.274Zm-7.635-1.391a9.219,9.219,0,1,0-9.176-9.279A9.241,9.241,0,0,0,293.8,2055.883Z" fill="#007fff"/>
    <path id="Path_762" data-name="Path 762" d="M255.824,2030.654v-3.144h9.24l.161,2.964h3.014l.134-2.953h2.993l.143,3.038h2.965l.164,3.048,3,.189v2.961l-2.973.138-.246,3.252.058-.059h-3l.046.047v-6.377h-6.231v3.166h2.918v3.211l.037-.048h-3.094v6.109h-9.271v-3.035h6.066v-3.128h-9.282v-3.086l3.154-.166v-3.243l-.056.062,3.012.205.132,2.947h3.019V2030.6h-6.163Z" fill="#007fff"/>
    <path id="Path_763" data-name="Path 763" d="M252.712,2005.479h18.612v18.7H252.712Zm15.507,15.613v-12.408h-12.38v12.408Z" fill="#007fff"/>
    <path id="Path_764" data-name="Path 764" d="M252.659,2068.167v-18.642h18.713v18.642Zm3.18-15.565v12.441H268.18V2052.6Z" fill="#007fff"/>
    <path id="Path_765" data-name="Path 765" d="M315.343,2024.191H296.759v-18.672h18.584Zm-15.537-3.13H312.3v-12.4h-12.49Z" fill="#007fff"/>
    <path id="Path_766" data-name="Path 766" d="M303.278,2076.653c3.774,0,7.374.008,10.974,0,5.983-.016,9.706-3.74,9.715-9.709,0-3.6,0-7.206,0-10.927h3.8a10.258,10.258,0,0,1,.118,1.113c.008,3.507.047,7.015-.007,10.522a12.887,12.887,0,0,1-13.007,12.981c-3.84.046-7.681.008-11.6.008Z" fill="#007fff"/>
    <path id="Path_767" data-name="Path 767" d="M240.433,2017.724c0-4.593-.309-9.1.078-13.553a12.21,12.21,0,0,1,11.033-10.89c4.4-.352,8.856-.07,13.377-.07v3.832h-1.447c-3.211,0-6.421-.008-9.632,0-5.77.016-9.576,3.8-9.593,9.539-.01,3.21,0,6.42-.007,9.63,0,.479-.04.958-.064,1.511Z" fill="#007fff"/>
    <path id="Path_768" data-name="Path 768" d="M327.877,2017.717h-3.832c-.026-.523-.073-1.041-.075-1.559-.006-3.309.021-6.619-.009-9.927a8.979,8.979,0,0,0-9.2-9.175c-3.7-.032-7.408-.031-11.112-.052-.089,0-.176-.07-.357-.148V1993.2a2.249,2.249,0,0,1,.544-.129c4.294.041,8.617-.2,12.877.211a12.508,12.508,0,0,1,11.141,12.251C327.959,2009.569,327.877,2013.606,327.877,2017.717Z" fill="#007fff"/>
    <path id="Path_769" data-name="Path 769" d="M240.335,2055.978h3.825c.028.461.08.93.081,1.4.008,3.359-.016,6.718.011,10.076a8.989,8.989,0,0,0,9.187,9.2c3.705.036,7.409.023,11.114.037a1.418,1.418,0,0,1,.362.145v3.6c-.079.059-.158.167-.236.166-4.393-.031-8.813.22-13.172-.182a12.54,12.54,0,0,1-11.159-12.394C240.279,2064.033,240.335,2060.046,240.335,2055.978Z" fill="#007fff"/>
    <path id="Path_770" data-name="Path 770" d="M287.229,2014.888l-6.246,0,.034.049v-6.266H277.7l.048.058v-3.182h6.233v6.08l3.194.168c0,1.1,0,2.125,0,3.145Z" fill="#007fff"/>
    <path id="Path_771" data-name="Path 771" d="M287.336,2024.525l-.219-3.334-2.981-.14v-2.959l3.093-.17v-3.034l-.048.049h6.153v2.922l-3,.176v6.068l-3.035.391Z" fill="#007fff"/>
    <path id="Path_772" data-name="Path 772" d="M287.26,2027.322h3.013l.167-2.9h2.931l.148,2.953h2.969v3.078h-9.176q0-1.593,0-3.176Z" fill="#007fff"/>
    <path id="Path_773" data-name="Path 773" d="M280.983,2014.885v6.126H274.71v-2.939l3.04-.134V2014.9l-.047.035h3.314Z" fill="#007fff"/>
    <path id="Path_774" data-name="Path 774" d="M277.75,2014.9h-3.02v-6.326l3.023.153-.048-.058q0,3.133,0,6.266Z" fill="#007fff"/>
    <path id="Path_775" data-name="Path 775" d="M293.368,2005.552v6h-2.925v-6Z" fill="#007fff"/>
    <path id="Path_776" data-name="Path 776" d="M302.767,2030.5H299.9v-2.975h2.863Z" fill="#007fff"/>
    <path id="Path_777" data-name="Path 777" d="M277.6,2027.24l.166,3.2H274.7v-2.907c1.01-.092,1.971-.179,2.934-.264Z" fill="#007fff"/>
    <path id="Path_778" data-name="Path 778" d="M277.626,2055.631h-2.92v-2.982h2.92Z" fill="#007fff"/>
    <path id="Path_779" data-name="Path 779" d="M274.737,2058.913h2.878v2.989h-2.878Z" fill="#007fff"/>
    <path id="Path_780" data-name="Path 780" d="M274.42,2043.037l-.13,3.436.006-.009-2.76-.315v-3.114l-.056.055h3Z" fill="#007fff"/>
    <path id="Path_781" data-name="Path 781" d="M281.112,2027.232q-1.755.006-3.513.01l.031.026c.069-.912.141-1.822.221-2.843h2.91l.32,2.84Z" fill="#007fff"/>
    <path id="Path_782" data-name="Path 782" d="M287.3,2024.494q-.024,1.416-.046,2.83l.052-.049q-1.731-.016-3.464-.029l.04.043.269-3,3.179.235Z" fill="#007fff"/>
    <path id="Path_783" data-name="Path 783" d="M306.185,2027.5h2.9v2.977h-2.9Z" fill="#007fff"/>
    <path id="Path_784" data-name="Path 784" d="M255.822,2033.539l-3.137.157v-3.042h3.139l-.058-.054v3Z" fill="#007fff"/>
    <path id="Path_785" data-name="Path 785" d="M271.536,2043.035h-3.154l-.133-2.947-.037.048h3.313l-.046-.047v3Z" fill="#007fff"/>
    <path id="Path_786" data-name="Path 786" d="M281.081,2027.265q1.406.015,2.808.026l-.043-.045c.066,1.013.134,2.029.211,3.182h-3.174c.077-1.094.151-2.143.227-3.194Z" fill="#007fff"/>
    <path id="Path_787" data-name="Path 787" d="M274.29,2046.473l3.315-.22v3.045h-2.78c-.172-.935-.348-1.886-.526-2.836Z" fill="#007fff"/>
    <path id="Path_788" data-name="Path 788" d="M274.423,2040.147l3.177-.154v3.044h-3.18l.06.054v-3Z" fill="#007fff"/>
    <path id="Path_789" data-name="Path 789" d="M259,2011.789h6.042v6.08H259Z" fill="#007fff"/>
    <path id="Path_790" data-name="Path 790" d="M265.022,2061.949h-6.016v-6.106h6.016Z" fill="#007fff"/>
    <path id="Path_791" data-name="Path 791" d="M302.989,2017.819v-5.983h6.078v5.983Z" fill="#007fff"/>
  </g>
</svg>
