<svg xmlns="http://www.w3.org/2000/svg" width="136.458" height="136.458" viewBox="0 0 136.458 136.458">
  <g id="Group_212" data-name="Group 212" transform="translate(-3847.789 -7844.708)">
    <g id="Group_210" data-name="Group 210">
      <circle id="Ellipse_32" data-name="Ellipse 32" cx="68.229" cy="68.229" r="68.229" transform="translate(3847.789 7844.708)" fill="#e03"/>
    </g>
    <g id="Group_211" data-name="Group 211">
      <path id="Path_711" data-name="Path 711" d="M3908.578,7870.186h-9.22a8.812,8.812,0,0,0-8.812,8.812v67.878a8.812,8.812,0,0,0,8.812,8.812h9.22a2.2,2.2,0,0,0,2.2-2.2V7946.9a2.2,2.2,0,0,0-2.2-2.2h-14.316v-63.526h14.316a2.2,2.2,0,0,0,2.2-2.2v-6.582A2.2,2.2,0,0,0,3908.578,7870.186Z" fill="#fff"/>
      <path id="Path_712" data-name="Path 712" d="M3932.677,7870.186h-9.22a2.2,2.2,0,0,0-2.2,2.2v6.582a2.2,2.2,0,0,0,2.2,2.2h14.316V7944.7h-14.316a2.2,2.2,0,0,0-2.2,2.2v6.582a2.2,2.2,0,0,0,2.2,2.2h9.22a8.812,8.812,0,0,0,8.812-8.812V7879A8.812,8.812,0,0,0,3932.677,7870.186Z" fill="#fff"/>
    </g>
  </g>
</svg>
