<svg xmlns="http://www.w3.org/2000/svg" width="95.162" height="91.426" viewBox="0 0 95.162 91.426">
  <g id="Group_268" data-name="Group 268" transform="translate(-79.107 -1266.47)">
    <g id="Group_29" data-name="Group 29" transform="translate(-10676.813 -3610.654)">
      <path id="Path_86" data-name="Path 86" d="M10829.979,4885.031c.937-1.312,1.774-2.581,2.724-3.766a7.4,7.4,0,0,1,1.507-1.13,5.823,5.823,0,0,1,1.078,1.5c1.153,3.806,2.245,7.63,3.319,11.458.516,1.84-.19,2.869-2.12,3.056q-6.33.612-12.667,1.112c-.471.037-1.244-.17-1.389-.477a1.852,1.852,0,0,1,.253-1.507c.861-1.351,1.836-2.636,2.885-4.112-1.349-.754-2.585-1.5-3.873-2.157-23.208-11.813-52.468,1.92-57.262,26.868-4.047,21.062,9.653,40.839,31.27,45.14.306.061.612.123.915.2a3.722,3.722,0,0,1,2.925,4.427,3.778,3.778,0,0,1-4.432,2.845c-13.215-2.393-23.688-8.961-31.166-19.728-15.871-22.852-7.367-54.342,18.164-66.517,15.726-7.5,31.395-6.683,46.543,1.99C10829.035,4884.448,10829.408,4884.685,10829.979,4885.031Z" fill="#047efd"/>
      <path id="Path_87" data-name="Path 87" d="M10843.325,4922.853a12.852,12.852,0,0,1,.113-2.059,3.871,3.871,0,0,1,7.592.558,24.23,24.23,0,0,1,.022,2.844,3.85,3.85,0,0,1-7.7-.177c0-.388,0-.776,0-1.164Z" fill="#047efd"/>
      <path id="Path_88" data-name="Path 88" d="M10844.318,4941.98a3.662,3.662,0,0,1-3.682-4.583,20.822,20.822,0,0,1,1.085-3.048,3.828,3.828,0,0,1,4.786-2,3.6,3.6,0,0,1,2.441,4.332,20.213,20.213,0,0,1-1.119,3.172A3.617,3.617,0,0,1,10844.318,4941.98Z" fill="#047efd"/>
      <path id="Path_89" data-name="Path 89" d="M10842.29,4948.456c.03,2.2-2.788,5.562-4.89,5.881a3.713,3.713,0,0,1-3.74-1.525,3.362,3.362,0,0,1-.126-4.124,17.876,17.876,0,0,1,2.268-2.711,3.627,3.627,0,0,1,4.192-.748A3.494,3.494,0,0,1,10842.29,4948.456Z" fill="#047efd"/>
      <path id="Path_90" data-name="Path 90" d="M10844.074,4903.866c1.921-.01,3.081.986,4.024,3.353.787,1.971,1.37,3.916-.57,5.588a3.883,3.883,0,0,1-5.99-1.2,17.834,17.834,0,0,1-1.165-3.157A3.675,3.675,0,0,1,10844.074,4903.866Z" fill="#047efd"/>
    </g>
    <g id="Group_30" data-name="Group 30" transform="translate(-10676.813 -3610.654)">
      <path id="Path_91" data-name="Path 91" d="M10799.632,4903.355h2.7a3.009,3.009,0,0,0,.5.155,12.352,12.352,0,0,1,6.013,2.435,13.062,13.062,0,0,1,5.428,10.92c0,.4-.206.864.417,1.135a2.283,2.283,0,0,1,1.348,2.331c-.013,5.734,0,11.468-.007,17.2a6.333,6.333,0,0,1-1.578,4.2,7.454,7.454,0,0,1-3.833,2.175h-19.284c-.192-.064-.382-.139-.579-.189a6.3,6.3,0,0,1-4.813-5.82q-.069-8.913.024-17.827a2.482,2.482,0,0,1,.961-1.781,1.686,1.686,0,0,0,.812-1.66,12.916,12.916,0,0,1,7.87-12.09A26.438,26.438,0,0,1,10799.632,4903.355Zm1.392,16.156q-6.037,0-12.071,0c-1.192,0-1.241.049-1.241,1.194q0,8.243,0,16.485c0,3.153,1.823,4.963,4.979,4.966q8.287.006,16.574,0c.33,0,.661-.007.989-.039a4.477,4.477,0,0,0,3.989-4.372q0-8.513-.016-17.025c0-1.153-.052-1.208-1.224-1.208Q10807.013,4919.507,10801.023,4919.511Zm-8.061-1.77a8.306,8.306,0,0,1,1.846-6.376,7.986,7.986,0,0,1,5.94-2.948,7.82,7.82,0,0,1,5.5,1.849,8.337,8.337,0,0,1,2.98,7.473h3.294c.158-4.52-1.421-8.184-5.2-10.645a10.893,10.893,0,0,0-12.532-.114c-3.87,2.454-5.5,6.154-5.263,10.761Zm1.729-.039h12.8c.172-2.721-.567-5-2.883-6.5a6.08,6.08,0,0,0-6.869-.105C10795.3,4912.574,10794.493,4914.875,10794.692,4917.7Z" fill="#047efd"/>
    </g>
    <path id="Path_92" data-name="Path 92" d="M10786.677,4919.51v19.3l2.832,3.345,6.53,1.028s5.775.224,6.279.224,8.017-.224,8.017-.224l3.908-2.3a18.352,18.352,0,0,0,1.362-3.042c0-.49-.617-7.442-.617-7.442l.111-8.409-.856-3.027a13.569,13.569,0,0,1-2.059-.264c-.168-.129-24.161-.241-24.161-.241l-1.626,1.046" transform="translate(-10676.813 -3610.654)" fill="#047efd"/>
  </g>
</svg>
