<svg xmlns="http://www.w3.org/2000/svg" width="175.025" height="157.214" viewBox="0 0 175.025 157.214">
  <g id="Group_25" data-name="Group 25" transform="translate(-10783.663 -3934.563)">
    <path id="Path_67" data-name="Path 67" d="M10920.373,4090.9c-.454.3-.916.587-1.374.881C10919.457,4091.483,10919.921,4091.2,10920.373,4090.9Z" fill="#0080ff"/>
    <path id="Path_68" data-name="Path 68" d="M10924.042,4088.309c-.529.392-1.065.771-1.6,1.15C10922.978,4089.079,10923.515,4088.7,10924.042,4088.309Z" fill="#0080ff"/>
    <path id="Path_69" data-name="Path 69" d="M10958.688,4020.132c0-47.257-39.183-85.569-87.51-85.569s-87.516,38.312-87.516,85.569a84.752,84.752,0,0,0,33.981,67.665c2.229-1.024,4.285-1.977,6.341-2.917a177.077,177.077,0,0,0,20.354-10.548,49.271,49.271,0,0,0,8.737-6.774,7.563,7.563,0,0,0,2.5-5.268c.061-2.679-.023-5.366.009-8.045a5.564,5.564,0,0,0-1.588-3.574c-1.652-2.107-3.351-4.192-4.792-6.437a44.62,44.62,0,0,1-4.9-10.874,11.186,11.186,0,0,0-3.308-5.336,8.264,8.264,0,0,1-1.344-11.1,9.016,9.016,0,0,0,1.521-5.405c.025-6.706.12-13.411.35-20.121.384-11.309,7.051-19.522,18-22.36,5.647-1.462,11.393-1.471,17.157-1.082a37.745,37.745,0,0,1,9.674,1.963c7.835,2.666,12.354,8.282,14.231,16.141a33.317,33.317,0,0,1,.788,6.888c.147,6.543.153,13.089.174,19.629a4.9,4.9,0,0,0,.8,2.848,20.217,20.217,0,0,1,1.676,3.093c1.47,3.312,1.057,6.459-1.611,8.9a15.624,15.624,0,0,0-4.23,7.024,48.25,48.25,0,0,1-10.382,17.6,2.67,2.67,0,0,0-.764,2.014c.073,2.55.07,5.1.081,7.653a7.188,7.188,0,0,0,2.148,5.2,47.557,47.557,0,0,0,10.562,8.079,235.927,235.927,0,0,0,23.957,12.117c.344.146.685.317,1.138.529A84.743,84.743,0,0,0,10958.688,4020.132Z" fill="#0080ff"/>
  </g>
</svg>
