<svg xmlns="http://www.w3.org/2000/svg" width="124.315" height="115.853" viewBox="0 0 124.315 115.853">
  <g id="Group_103" data-name="Group 103" transform="translate(-2225.646 -12678.29)">
    <g id="Group_102" data-name="Group 102">
      <path id="Path_316" data-name="Path 316" d="M2225.653,12794.143c0-1.774-.032-3.485.035-5.192.01-.257.459-.541.76-.724.167-.1.446-.023.675-.023h121.3a2.156,2.156,0,0,1,.848.035c.269.126.648.414.655.641.055,1.736.03,3.473.03,5.264Z" fill="#f68e1e"/>
      <path id="Path_317" data-name="Path 317" d="M2341.777,12708.018c-.857,1.873-1.666,3.661-2.5,5.437-.063.135-.3.226-.471.261a3.467,3.467,0,0,1-.684.013q-50.313,0-100.624.021a1.377,1.377,0,0,1-1.513-.979c-.649-1.574-1.4-3.11-2.142-4.751Z" fill="#f68e1e"/>
      <path id="Path_318" data-name="Path 318" d="M2233.986,12706.374c2.434-1.282,4.649-2.449,6.865-3.613q23.031-12.1,46.055-24.211a1.694,1.694,0,0,1,1.8,0q26.015,13.7,52.05,27.36c.219.115.436.236.856.463Zm10.225-2.6.037.127h87.323c-.368-.216-.556-.336-.753-.44q-21.134-11.1-42.26-22.217a1.468,1.468,0,0,0-1.566.042q-17.825,9.384-35.662,18.743Q2247.769,12701.9,2244.211,12703.772Z" fill="#f68e1e"/>
      <path id="Path_319" data-name="Path 319" d="M2344.26,12786.826H2231.377c0-1.354-.027-2.711.03-4.065.008-.2.4-.442.656-.541a2.558,2.558,0,0,1,.85-.029h109.8c.257,0,.563-.083.76.026.3.169.739.461.755.723C2344.3,12784.214,2344.26,12785.5,2344.26,12786.826Z" fill="#f68e1e"/>
      <path id="Path_320" data-name="Path 320" d="M2238.559,12780.8c0-1.308,0-2.534,0-3.76a.767.767,0,0,1,.84-.861c.257-.006.515-.006.772-.006h95.295c1.568,0,1.591.021,1.592,1.579,0,.943-.008,1.886-.017,2.829a.974.974,0,0,1-.071.219Z" fill="#f68e1e"/>
      <path id="Path_321" data-name="Path 321" d="M2264.339,12767.7v-.972q0-21.7,0-43.4a2.423,2.423,0,0,1,2.077-2.1q2.143-.013,4.288,0a2.37,2.37,0,0,1,2.1,2.086q0,21.7.016,43.4c0,.777-.186,1.024-.988,1.007C2269.381,12767.671,2266.926,12767.7,2264.339,12767.7Z" fill="#f68e1e"/>
      <path id="Path_322" data-name="Path 322" d="M2302.809,12767.644v-44.338a2.424,2.424,0,0,1,2.027-2.073c1.086-.014,2.182.086,3.256-.027a3.183,3.183,0,0,1,2.877,1.077,1.57,1.57,0,0,1,.294.978q.021,17.111.012,34.222,0,4.632,0,9.263v.9Z" fill="#f68e1e"/>
      <path id="Path_323" data-name="Path 323" d="M2251.921,12767.658h-8.443V12723.4a2.29,2.29,0,0,1,2.18-2.173,29.511,29.511,0,0,0,3.084-.022,3.28,3.28,0,0,1,2.887,1.067,1.326,1.326,0,0,1,.281.561,1.89,1.89,0,0,1,.01.512q0,21.691,0,43.382Z" fill="#f68e1e"/>
      <path id="Path_324" data-name="Path 324" d="M2332.137,12767.659h-8.4c-.016-.332-.042-.634-.042-.936q0-21.691,0-43.382a2.388,2.388,0,0,1,2.065-2.108q2.142-.019,4.286,0a2.329,2.329,0,0,1,2.09,2.088q0,21.691,0,43.382Z" fill="#f68e1e"/>
      <path id="Path_325" data-name="Path 325" d="M2289.359,12730.938c0,.711.033,1.364-.01,2.013-.036.539.187.706.688.844a17.217,17.217,0,0,1,3.218,1.105,6.637,6.637,0,0,1,3.157,3.861l-5.136,1.616a3.174,3.174,0,0,0-2.621-2.047,6.918,6.918,0,0,0-1.7.066,1.22,1.22,0,0,0-.146,2.4c1.4.389,2.823.718,4.233,1.084.552.145,1.095.324,1.643.486,4.934,1.457,5.477,7.524,2.449,10.479a8.822,8.822,0,0,1-5.037,2.357c-.583.087-.786.29-.748.865.042.653.009,1.312.009,2.044h-3.121c0-.65-.036-1.326.011-2,.043-.611-.168-.82-.787-.925a7.929,7.929,0,0,1-6.652-5.583c-.053-.158-.079-.325-.146-.611l5.675-1.063c1.15,2.137,2.425,2.813,4.707,2.5.72-.1,1.464-.264,1.557-1.183.089-.887-.513-1.306-1.237-1.514-1.18-.339-2.386-.583-3.57-.908-.77-.212-1.529-.469-2.276-.752a5.481,5.481,0,0,1-3.835-5.084,6.2,6.2,0,0,1,2.959-5.987,10.946,10.946,0,0,1,2.933-1.132c.541-.148.693-.354.669-.864-.031-.677-.007-1.355-.007-2.077Z" fill="#f68e1e"/>
      <path id="Path_326" data-name="Path 326" d="M2274.95,12774.8h-12.766v-3.729l.905-.174v-1.827H2274v1.8l.953.183Z" fill="#f68e1e"/>
      <path id="Path_327" data-name="Path 327" d="M2312.452,12770.89l.984.181v3.727h-12.767v-3.724l.876-.176.1-1.849h10.8Z" fill="#f68e1e"/>
      <path id="Path_328" data-name="Path 328" d="M2241.321,12774.792v-3.74l.889-.139.1-1.863H2253.1v1.818l.988.205v3.719Z" fill="#f68e1e"/>
      <path id="Path_329" data-name="Path 329" d="M2321.527,12774.782v-3.718l.924-.16v-1.835h10.862l.08,1.83.9.154v3.729Z" fill="#f68e1e"/>
      <path id="Path_330" data-name="Path 330" d="M2297.872,12718.5a2.945,2.945,0,0,1,2.923-2.988q6.255-.079,12.512,0a2.9,2.9,0,0,1,2.856,2.494,3,3,0,0,1-1.666,3.258,3.06,3.06,0,0,1-3.71-.862,1.631,1.631,0,0,0-1.057-.483c-1.769-.049-3.542,0-5.313-.032a1.328,1.328,0,0,0-1.218.567,2.9,2.9,0,0,1-3.393.91A3,3,0,0,1,2297.872,12718.5Zm3.066,2a2,2,0,0,0,1.939-1.993,1.984,1.984,0,0,0-1.982-1.942,1.968,1.968,0,1,0,.043,3.936Zm12.237-3.934a1.968,1.968,0,1,0,1.973,1.931A1.942,1.942,0,0,0,2313.175,12716.574Z" fill="#f68e1e"/>
      <path id="Path_331" data-name="Path 331" d="M2327.9,12715.493c2.029,0,4.058-.022,6.086.007a3.008,3.008,0,0,1,2.977,2.148,3.038,3.038,0,0,1-5.286,2.776,1.6,1.6,0,0,0-1.041-.5c-1.827-.05-3.657-.047-5.485,0a1.5,1.5,0,0,0-.974.475,3.04,3.04,0,0,1-5.4-2.38,2.99,2.99,0,0,1,2.947-2.51c2.056-.043,4.114-.011,6.171-.011Zm-4.164,3.018a1.968,1.968,0,0,0-3.935.012,1.968,1.968,0,1,0,3.935-.012Zm10.316-1.939a1.971,1.971,0,1,0,1.989,1.933A1.987,1.987,0,0,0,2334.056,12716.571Z" fill="#f68e1e"/>
      <path id="Path_332" data-name="Path 332" d="M2238.53,12718.565a2.951,2.951,0,0,1,3.023-3.058q6.171-.062,12.343,0a2.973,2.973,0,0,1,2.937,2.522,3.041,3.041,0,0,1-5.408,2.354,1.5,1.5,0,0,0-.979-.464c-1.828-.044-3.658-.048-5.485,0a1.627,1.627,0,0,0-1.037.511,3.091,3.091,0,0,1-3.409.956A2.987,2.987,0,0,1,2238.53,12718.565Zm3.029-1.994a1.971,1.971,0,0,0-.072,3.941,1.971,1.971,0,1,0,.072-3.941Zm10.316,1.95a1.968,1.968,0,1,0,1.959-1.946A1.958,1.958,0,0,0,2251.875,12718.521Z" fill="#f68e1e"/>
      <path id="Path_333" data-name="Path 333" d="M2268.543,12715.491c2.028,0,4.057-.019,6.085.006a2.966,2.966,0,0,1,2.921,1.98,2.919,2.919,0,0,1-.722,3.233,3.034,3.034,0,0,1-4.484-.278,1.611,1.611,0,0,0-1.039-.509c-1.827-.051-3.657-.047-5.484,0a1.512,1.512,0,0,0-.98.465,3.05,3.05,0,0,1-3.7.891,2.993,2.993,0,0,1-1.689-3.245,2.95,2.95,0,0,1,2.925-2.522c2.055-.049,4.113-.012,6.17-.012Zm6.163,1.081a1.968,1.968,0,1,0,1.984,1.93A1.961,1.961,0,0,0,2274.706,12716.572Zm-14.241,1.92a1.962,1.962,0,0,0,1.9,2.018,1.969,1.969,0,1,0,.092-3.937A1.947,1.947,0,0,0,2260.465,12718.492Z" fill="#f68e1e"/>
      <path id="Path_334" data-name="Path 334" d="M2277.167,12696.68c1.329.814,1.674,1.647,1.267,2.871a1.865,1.865,0,0,1-1.753,1.409c-1.675.063-3.354.018-5.082.018v-8.256c1.649,0,3.294-.067,4.93.025a1.929,1.929,0,0,1,1.79,1.693C2278.488,12695.326,2278.157,12695.986,2277.167,12696.68Zm-3.228,2.541a4.285,4.285,0,0,0,1.317-.03c.333-.118.573-.5.854-.762-.261-.256-.482-.638-.792-.735a4.9,4.9,0,0,0-1.379-.031Zm.005-4.768v1.433a4.662,4.662,0,0,0,1.294-.028c.284-.09.655-.437.671-.689.014-.224-.368-.6-.645-.685A4.786,4.786,0,0,0,2273.944,12694.453Z" fill="#f68e1e"/>
      <path id="Path_335" data-name="Path 335" d="M2292.926,12692.685h1.985v8.213c-1.459.434-1.96.26-2.711-.956-.777-1.26-1.549-2.521-2.373-3.861v4.906h-1.963v-8.33a18.037,18.037,0,0,1,1.984.023,1.156,1.156,0,0,1,.684.516c.785,1.185,1.532,2.395,2.394,3.756Z" fill="#f68e1e"/>
      <path id="Path_336" data-name="Path 336" d="M2298.877,12700.994h-2.323v-8.292h2.318v3.083l.2.083a13.085,13.085,0,0,0,1.1-1.618c.659-1.347,1.591-2.039,3.244-1.431-.486.705-.976,1.481-1.535,2.205a1.178,1.178,0,0,0-.1,1.463c.769,1.452,1.464,2.943,2.254,4.553-.913,0-1.676.036-2.432-.024-.2-.016-.455-.288-.565-.5-.424-.831-.8-1.687-1.193-2.529C2298.7,12698.75,2298.918,12699.9,2298.877,12700.994Z" fill="#f68e1e"/>
      <path id="Path_337" data-name="Path 337" d="M2286.944,12701.042a13.548,13.548,0,0,1-2.136-.036,1.123,1.123,0,0,1-.659-.77c-.145-.732-.539-.912-1.208-.84s-1.51-.271-1.623.834c-.07.684-.444.907-1.1.822a9.918,9.918,0,0,0-1.192-.009c.844-2.743,1.65-5.387,2.489-8.02a.744.744,0,0,1,.563-.352c.71-.042,1.424-.016,2.232-.016Zm-4.922-3.488h1.4l-.615-2.192-.174.008Z" fill="#f68e1e"/>
    </g>
  </g>
</svg>
