<svg xmlns="http://www.w3.org/2000/svg" width="99.751" height="91.043" viewBox="0 0 99.751 91.043">
  <path id="Path_96" data-name="Path 96" d="M10855.115,5045.469h-2.24l-10.336-26.381a6.288,6.288,0,0,0-8-3.567l-68.984,26.824a6.146,6.146,0,0,0-3.512,3.292,5.968,5.968,0,0,0-.073,4.692l12.855,32.815v16.817a6.194,6.194,0,0,0,6.157,6.217h74.132a6.2,6.2,0,0,0,6.161-6.217v-48.272A6.2,6.2,0,0,0,10855.115,5045.469Zm-5.994,0h-18.3l15.889-6.181Zm-76.437,22.618,2.143-.833v6.3Zm2.143-16.4v.929l-7.121,2.764-2.492-6.359a2.492,2.492,0,0,1,.032-1.974,2.636,2.636,0,0,1,1.541-1.429l69-26.832a2.8,2.8,0,0,1,.96-.175,2.673,2.673,0,0,1,2.524,1.723l2.473,6.314-48.509,18.826h-12.254A6.182,6.182,0,0,0,10774.826,5051.689Zm82.952,48.272a2.734,2.734,0,0,1-2.667,2.723h-74.128a2.729,2.729,0,0,1-2.663-2.723v-48.272a2.727,2.727,0,0,1,2.663-2.722h74.132a2.732,2.732,0,0,1,2.667,2.722v48.272Zm-7.748-7.562h-62.366a1.747,1.747,0,0,0,0,3.494h62.37a1.747,1.747,0,1,0,0-3.494Zm-62.366-31.314h27.313a1.748,1.748,0,0,0,0-3.5h-27.313a1.748,1.748,0,0,0,0,3.5Zm5.028,20.228h8.2a6.761,6.761,0,1,0,0-13.523h-8.2a6.761,6.761,0,1,0,0,13.523Z" transform="translate(-10761.525 -5015.135)" fill="#047efd"/>
</svg>
