<svg xmlns="http://www.w3.org/2000/svg" width="65.248" height="65.248" viewBox="0 0 65.248 65.248">
  <g id="Group_268" data-name="Group 268" transform="translate(-141.124 -551.426)">
    <g id="Group_23" data-name="Group 23" transform="translate(-10676.813 -3610.654)">
      <circle id="Ellipse_2" data-name="Ellipse 2" cx="32.624" cy="32.624" r="32.624" transform="translate(10817.938 4162.08)" fill="#0080ff"/>
    </g>
    <g id="Group_24" data-name="Group 24" transform="translate(-10676.813 -3610.654)">
      <path id="Path_65" data-name="Path 65" d="M10869.418,4181.279c0,2.283-.087,4.57.019,6.847.059,1.245-.384,1.536-1.521,1.454-1.287-.092-2.585-.03-3.877-.019a4.741,4.741,0,0,0-4.728,5.695c.587,3.32,2.139,4.613,5.541,4.614,1.25,0,2.5.026,3.749-.009.624-.017.821.221.813.826-.03,2.326.027,4.655-.049,6.98-.067,2.046-1.848,3.345-4.531,3.368-3.1.027-6.205.006-9.308.006q-9.179,0-18.358,0a10.017,10.017,0,0,1-2.782-.413c-1.944-.712-2.59-2.285-2.6-4.16q-.045-11.765,0-23.53a4.262,4.262,0,0,1,4.661-4.582q13.96.13,27.925,0C10866.731,4178.344,10868.466,4179.043,10869.418,4181.279Z" fill="#fff"/>
      <path id="Path_66" data-name="Path 66" d="M10866.581,4198.15c-.86,0-1.721,0-2.582,0-2-.007-3.012-1.169-3.018-3.456-.007-2.222,1.091-3.559,2.96-3.573,1.851-.015,3.7.034,5.553-.017a1.418,1.418,0,0,1,1.629,1.545c.061,1.375.048,2.755,0,4.131-.027.881-.417,1.442-1.447,1.383S10867.615,4198.15,10866.581,4198.15Z" fill="#fff"/>
    </g>
  </g>
</svg>
