<svg xmlns="http://www.w3.org/2000/svg" width="98.504" height="93.569" viewBox="0 0 98.504 93.569">
  <g id="Group_157" data-name="Group 157" transform="translate(-5578.424 -10099.392)">
    <path id="Path_510" data-name="Path 510" d="M5676.928,10150.538c-.305,1.6-.591,3.207-.918,4.8a46.869,46.869,0,0,1-90.616,4.948c-.169-.524-.27-1.07-.447-1.786,3.2,0,6.221-.076,9.236.069.554.025,1.288.848,1.562,1.469,3.539,8,8.9,14.457,16.68,18.482,13.91,7.194,27.582,6.366,40.017-3.18,12.131-9.312,17.078-22.062,13.67-37.046-3.477-15.288-13.507-24.908-28.847-28.259-16.325-3.567-33.614,5.133-40.511,19.836l13.324,13.306-.2.537h-31.455v-31.825l10.75,11.395c.592-.545.731-.584.8-.676.187-.251.348-.522.512-.791a45.072,45.072,0,0,1,26.1-20.312c3.232-.984,6.629-1.426,9.951-2.117h7.2c.612.128,1.218.309,1.836.377,19.359,2.171,36.028,17.229,40.2,36.334.415,1.9.773,3.814,1.158,5.722Z" fill="#0080ff"/>
    <path id="Path_511" data-name="Path 511" d="M5649.754,10156.588c-1.286,2.089-2.524,4.1-3.843,6.245-1.936-1.128-3.726-2.154-5.5-3.208-5.47-3.252-10.946-6.5-16.384-9.8a2.517,2.517,0,0,1-1.212-1.632c-.079-7.937-.054-15.873-.054-23.975h7.215c.046.7.134,1.429.135,2.154.01,5.421.05,10.843-.028,16.262a3.086,3.086,0,0,0,1.743,3.15c5.51,3.183,10.936,6.512,16.39,9.792C5648.692,10155.858,5649.144,10156.183,5649.754,10156.588Z" fill="#0080ff"/>
  </g>
</svg>
