<svg xmlns="http://www.w3.org/2000/svg" width="92.222" height="92.222" viewBox="0 0 92.222 92.222">
  <g id="Group_659" data-name="Group 659" transform="translate(-126.548 -385.906)">
    <circle id="Ellipse_29" data-name="Ellipse 29" cx="46.111" cy="46.111" r="46.111" transform="translate(126.548 385.906)" fill="#027ffe"/>
    <path id="Path_755" data-name="Path 755" d="M176.118,447.208h.5q4.633,0,9.265.007a8.416,8.416,0,0,1,8.271,8.093c.018.809-.386,1.2-1.265,1.2q-7.422,0-14.842,0H152.8c-1.459,0-1.728-.3-1.591-1.748a8.348,8.348,0,0,1,8.032-7.528c3.13-.067,6.263-.018,9.395-.021h.56V407.783a39.368,39.368,0,0,0-16.243,4.585c.134.327.253.621.374.915q3.7,9.05,7.4,18.1c.119.293.251.444.6.422,1.888-.121,1.879.593,1.739,1.983a10.561,10.561,0,0,1-8.286,9.278,12.552,12.552,0,0,1-8.724-.937,10.383,10.383,0,0,1-5.768-9.066c-.048-.845.351-1.253,1.193-1.265,1.019-.014,1.018-.014,1.407-.964q3.9-9.535,7.82-19.065a1.717,1.717,0,0,1,.666-.761,36.432,36.432,0,0,1,12.462-4.517c1.624-.291,3.274-.436,4.912-.648l.487-.063V405.3q0-2.217,0-4.435a1,1,0,0,1,1.071-1.118q2.37-.023,4.742,0a.985.985,0,0,1,1.044,1.1c.005,1.479,0,2.957,0,4.435v.481c1.081.123,2.129.221,3.17.363A38.413,38.413,0,0,1,193.93,411a1.859,1.859,0,0,1,.711.832q4.047,9.809,8.047,19.635a.444.444,0,0,0,.517.337,6.03,6.03,0,0,1,.659,0,1.049,1.049,0,0,1,1.172,1.242,10.38,10.38,0,0,1-4.441,8.28,10.674,10.674,0,0,1-6.28,2.042,14.476,14.476,0,0,1-4.977-.622,10.649,10.649,0,0,1-7.119-9.72c-.01-.837.359-1.284,1.182-1.2s1.133-.248,1.427-.979c2.428-6.033,4.907-12.045,7.37-18.063.05-.12.094-.243.158-.412a39.359,39.359,0,0,0-16.238-4.585Zm15.942,7.3a6.424,6.424,0,0,0-4.337-4.99,9.048,9.048,0,0,0-3.123-.347l-24.846.017a6.423,6.423,0,0,0-5.066,2.291,5.964,5.964,0,0,0-1.407,3.029Zm-18.025-7.324v-45.42h-2.758v45.42ZM151.7,414.617c-2.359,5.762-4.682,11.439-7.022,17.156h14.043Zm48.944,17.151c-2.342-5.722-4.662-11.393-7.019-17.152L186.6,431.768Zm-16.334,2.039c.03.221.041.4.078.565a8.6,8.6,0,0,0,5.3,6.366,11.274,11.274,0,0,0,5,.616,8.721,8.721,0,0,0,8.066-6.5c.086-.34.137-.689.207-1.051Zm-41.914.006a1.228,1.228,0,0,0,0,.2,8.588,8.588,0,0,0,5.346,6.722,11.274,11.274,0,0,0,5.047.623,8.719,8.719,0,0,0,8.078-6.647c.067-.288.1-.584.149-.893Z" fill="#fff"/>
  </g>
</svg>
