<svg xmlns="http://www.w3.org/2000/svg" width="92.222" height="92.222" viewBox="0 0 92.222 92.222">
  <g id="Group_660" data-name="Group 660" transform="translate(-126.548 -530.836)">
    <path id="Path_801" data-name="Path 801" d="M46.111,0A46.18,46.18,0,0,1,92,41.546a45.352,45.352,0,0,1,.223,4.565A46.111,46.111,0,1,1,46.111,0Z" transform="translate(126.548 530.836)" fill="#027ffe"/>
    <path id="Path_758" data-name="Path 758" d="M170.435,600.242q-10.092,0-20.182,0a4.553,4.553,0,0,1-4.748-3.356,5.684,5.684,0,0,1-.17-1.514q-.014-15.336-.005-30.671a4.531,4.531,0,0,1,4.842-4.854c4.413-.016,8.826,0,13.239-.014a4.88,4.88,0,0,0,1.419-.219q9.237-2.9,18.466-5.823c.987-.312,1.319-.135,1.58.86.4,1.508.8,3.014,1.17,4.53a.741.741,0,0,0,.878.675c1.345-.038,2.691-.029,4.036-.009a4.519,4.519,0,0,1,4.749,4.783q.014,15.375,0,30.752a4.55,4.55,0,0,1-4.851,4.858Q180.647,600.257,170.435,600.242Zm23.626-14.267H193.1c-4.657,0-9.313.012-13.97,0-2.563-.009-3.989-1.457-4.008-4.015-.009-1.211,0-2.422,0-3.633.005-2.834,1.388-4.231,4.2-4.233q6.864-.006,13.727,0h1.023v-.9q0-4.117,0-8.235c0-2.415-1.071-3.478-3.5-3.478H170.3q-10.054,0-20.107,0a2.913,2.913,0,0,0-3.224,3.188q-.009,15.381-.007,30.76a3.1,3.1,0,0,0,.838,2.285,3.2,3.2,0,0,0,2.428.894q20.309-.006,40.617-.006a4.6,4.6,0,0,0,.8-.065,2.777,2.777,0,0,0,2.4-2.658C194.093,592.628,194.061,589.374,194.061,585.975Zm-.03-10.163a1.5,1.5,0,0,0-.3-.078c-4.979-.005-9.958-.02-14.937,0a1.922,1.922,0,0,0-2.011,2.059c-.024,1.345-.009,2.691-.007,4.036,0,1.819.671,2.5,2.469,2.5q6.984,0,13.968,0c.26,0,.52-.027.818-.043ZM170.2,559.648l.035.131h14.287l-1.137-4.288Z" fill="#fff"/>
  </g>
</svg>
