<svg xmlns="http://www.w3.org/2000/svg" width="153" height="153" viewBox="0 0 153 153">
  <g id="Group_329" data-name="Group 329" transform="translate(-8712.417 -7331.318)">
    <circle id="Ellipse_18" data-name="Ellipse 18" cx="76.5" cy="76.5" r="76.5" transform="translate(8712.417 7331.318)" fill="#007fff"/>
    <g id="Group_328" data-name="Group 328">
      <g id="Group_327" data-name="Group 327">
        <path id="Path_396" data-name="Path 396" d="M8749.247,7419.468q8.436,8.45,16.873,16.9l2.389,2.392a9.1,9.1,0,0,0,12.682,0l16.111-16.112q12.731-12.729,25.46-25.46,2.914-2.911,5.826-5.825c3.321-3.321,3.568-9.4,0-12.681a9.129,9.129,0,0,0-12.682,0l-16.112,16.112-25.46,25.46-5.825,5.825h12.682l-16.873-16.9q-1.194-1.2-2.39-2.393c-3.318-3.324-9.406-3.567-12.681,0a9.128,9.128,0,0,0,0,12.681Z" fill="#fff"/>
      </g>
    </g>
  </g>
</svg>
