<svg xmlns="http://www.w3.org/2000/svg" width="71.974" height="93.922" viewBox="0 0 71.974 93.922">
  <g id="Group_26" data-name="Group 26" transform="translate(-10761.734 -5318.515)">
    <path id="Path_76" data-name="Path 76" d="M10761.734,5412.437v-80.765h8.653v-13.153h2.621c13.508,0,27.017-.024,40.523.043a6.068,6.068,0,0,1,3.33,1q7.761,5.61,15.321,11.493a4.022,4.022,0,0,1,1.461,2.724c.082,21.273.064,42.545.056,63.818,0,.548-.111,1.1-.2,1.9h-8.5v12.934Zm43.233-65.494v-13.06h-41.038v76.449h58.727v-63.389Zm-32.309-15.327h2.758c9.464,0,18.929.043,28.393-.034a7.928,7.928,0,0,1,5.329,1.733q6.861,5.4,13.96,10.486a4.111,4.111,0,0,1,1.89,3.815c-.062,15.613-.036,31.225-.036,46.838v2.8h6.382v-63.493h-17.561v-12.946h-41.114Zm43.339.015h13.487l-13.487-10.1Zm-8.712,13.034h13.354l-13.354-9.989Z" fill="#047efd"/>
    <path id="Path_77" data-name="Path 77" d="M10770.9,5362.633c.665-.634,1.163-1.525,1.667-1.528,14.047-.075,28.094-.06,42.141-.06l.45.626c-.5.494-1,1.417-1.5,1.418-13.974.039-27.946-.016-41.92-.061A5.653,5.653,0,0,1,10770.9,5362.633Z" fill="#047efd"/>
    <path id="Path_78" data-name="Path 78" d="M10814.69,5371.765a13.833,13.833,0,0,1-1.4.138q-20,.014-40,.016c-1.343,0-2.546-.029-1.757-2.031.541-.037,1.095-.108,1.648-.108q19.881-.01,39.763-.018C10814.317,5369.76,10815.477,5369.792,10814.69,5371.765Z" fill="#047efd"/>
    <path id="Path_79" data-name="Path 79" d="M10771.485,5378.624h43.229c.472,1.366.258,2.057-1.3,2.053q-20.25-.042-40.5,0C10771.486,5380.679,10770.943,5380.192,10771.485,5378.624Z" fill="#047efd"/>
    <path id="Path_80" data-name="Path 80" d="M10815.185,5387.99c-.575.474-1.149,1.358-1.729,1.361-13.909.078-27.817.06-41.874.06-.365-1.1-.892-2.146.943-2.148q21.094-.023,42.189-.008Z" fill="#047efd"/>
    <path id="Path_81" data-name="Path 81" d="M10793.338,5353.1c-.559.429-1.113,1.223-1.678,1.231-6.285.088-12.571.078-18.856.009-.51-.006-1.014-.639-1.52-.981.489-.354.975-1.011,1.467-1.016,6.683-.068,13.367-.046,20.051-.046Z" fill="#047efd"/>
  </g>
</svg>
