<svg xmlns="http://www.w3.org/2000/svg" width="92.222" height="92.168" viewBox="0 0 92.222 92.168">
  <path id="Path_83" data-name="Path 83" d="M10822.262,5559.8a30.225,30.225,0,0,1-21.266-9.229q-17.2-17.169-34.362-34.384c-13.172-13.246-12.629-33.2,3.98-46.458,3.576-2.856,7.306-2.834,10.785.3,4.006,3.611,7.84,7.441,11.479,11.422,3.375,3.692,3.21,7.827-.115,11.624-1.5,1.712-3.273,3.184-4.771,4.9-2.53,2.9-2.758,6.029-.141,8.734q11.143,11.509,22.652,22.66c2.7,2.609,5.826,2.351,8.733-.191,1.623-1.419,3.024-3.089,4.625-4.537,3.909-3.537,8.073-3.762,11.9-.288,3.908,3.544,7.639,7.3,11.229,11.171,3.024,3.259,3.5,7,1.062,10.177C10841.472,5554.283,10833.122,5559.827,10822.262,5559.8Zm-.03-25.665c-7.967,4.009-11.323,3.43-17.965-3.213q-8.9-8.908-17.807-17.822c-6.846-6.854-7.372-9.738-3.52-18.045l-14.891-14.865a9.12,9.12,0,0,0-.75.832c-7.025,9.459-5.784,22.168,3.209,31.385,6.7,6.869,13.53,13.616,20.342,20.376,5.533,5.49,10.889,11.194,16.751,16.31,8.464,7.385,22.212,7.01,29.41-.223Zm19.415,10.6c3.063-2.79,3.158-3.74.53-6.42-2.94-3-5.922-5.959-8.912-8.908-3.045-3-4.092-2.889-6.486.434Zm-54.246-54.254c3.253-2.641,3.376-3.533.578-6.38q-4.537-4.619-9.168-9.145c-2.749-2.676-4.131-2.43-6.143.737Z" transform="translate(-10757.392 -5467.629)" fill="#047efd"/>
</svg>
