<svg xmlns="http://www.w3.org/2000/svg" width="93.95" height="89.456" viewBox="0 0 93.95 89.456">
  <g id="Group_635" data-name="Group 635" transform="translate(-901.655 -1994.595)">
    <path id="Path_792" data-name="Path 792" d="M901.655,2064.83a2.127,2.127,0,0,1,2.022-.963c3.058.031,6.116.012,9.173.012h1.072c.02-.4.048-.723.051-1.048q.178-25.773.354-51.547c.012-1.98.433-2.4,2.443-2.4q17.931,0,35.864.017a1.254,1.254,0,0,0,1.382-.93,21.606,21.606,0,1,1,23.665,29.531c-1.558.263-3.149.319-4.867.484v.968q0,16.464-.006,32.929a11.886,11.886,0,0,1-9.782,11.923,20.263,20.263,0,0,1-3.74.227q-22.7.022-45.4.007a12.021,12.021,0,0,1-12.057-9.992c-.038-.2-.113-.4-.17-.6Zm15.37-.951H946.6q1.605,0,3.209,0c1.7,0,2.074.388,2.076,2.124,0,1.9-.009,3.79.006,5.686a10.67,10.67,0,0,0,.122,1.824,8.969,8.969,0,0,0,9.629,7.443,8.877,8.877,0,0,0,8.086-8.979c.028-11.248.005-22.5.021-33.746,0-.588-.158-.82-.766-.971a21.137,21.137,0,0,1-12.688-8.723,1.259,1.259,0,0,0-1.191-.618q-7.336.031-14.673.006a2,2,0,0,1-1.146-.171,2.741,2.741,0,0,1-.917-1.33,1.208,1.208,0,0,1,.906-1.411,3.611,3.611,0,0,1,1.167-.149q6.328-.015,12.655-.006h1.1a22.168,22.168,0,0,1-1.445-12.852h-35.38c-.116,17.286-.233,34.514-.35,51.872m75.5-47.665a18.556,18.556,0,1,0-18.495,18.587,18.539,18.539,0,0,0,18.495-18.587m-40,64.767c-.872-1.3-1.789-2.489-2.5-3.788a10.969,10.969,0,0,1-1.21-5.4c.007-1.607,0-3.214,0-4.847H904.87a44.236,44.236,0,0,0,.061,6.791,8.665,8.665,0,0,0,8.847,7.237q19.024.016,38.049,0Z" fill="#808285"/>
    <path id="Path_793" data-name="Path 793" d="M949.9,2054.549c-3.271,0-6.542.006-9.813,0-1.036,0-1.669-.517-1.749-1.368-.091-.979.579-1.659,1.723-1.672,1.864-.023,3.729-.007,5.594-.007h13.666c.275,0,.552-.015.824.012a1.527,1.527,0,0,1,1.492,1.548,1.5,1.5,0,0,1-1.557,1.479c-1.833.03-3.668.011-5.5.011H949.9" fill="#808285"/>
    <path id="Path_794" data-name="Path 794" d="M950.035,2041.225q-4.723,0-9.446,0a6.606,6.606,0,0,1-1.006-.045,1.43,1.43,0,0,1-1.243-1.554,1.387,1.387,0,0,1,1.32-1.4,14.84,14.84,0,0,1,1.649-.023q8.986,0,17.974,0c.275,0,.551-.01.825.006a1.49,1.49,0,0,1,1.531,1.49,1.47,1.47,0,0,1-1.517,1.5c-1.069.043-2.139.019-3.209.02q-3.44,0-6.878,0" fill="#808285"/>
    <path id="Path_795" data-name="Path 795" d="M934.92,2026.524a4.866,4.866,0,1,1-4.795-4.76,4.808,4.808,0,0,1,4.795,4.76m-4.839,1.62a1.664,1.664,0,1,0-.025-3.313,1.663,1.663,0,1,0,.025,3.313" fill="#808285"/>
    <path id="Path_796" data-name="Path 796" d="M934.92,2039.758a4.8,4.8,0,0,1-4.872,4.683,4.724,4.724,0,1,1,.083-9.442,4.778,4.778,0,0,1,4.789,4.759m-4.807,1.606a1.736,1.736,0,0,0,1.783-1.693,1.8,1.8,0,0,0-1.872-1.621,1.664,1.664,0,1,0,.089,3.314" fill="#808285"/>
    <path id="Path_797" data-name="Path 797" d="M934.92,2052.966a4.868,4.868,0,1,1-4.81-4.722,4.792,4.792,0,0,1,4.81,4.722m-4.817,1.623a1.735,1.735,0,0,0,1.792-1.682,1.806,1.806,0,0,0-1.861-1.634,1.75,1.75,0,0,0-1.779,1.7,1.729,1.729,0,0,0,1.848,1.613" fill="#808285"/>
    <path id="Path_798" data-name="Path 798" d="M975.247,2027.512c0,.579.029,1.1-.007,1.614a1.434,1.434,0,0,1-1.482,1.425,1.332,1.332,0,0,1-1.466-1.407c.154-1.315-.419-1.848-1.535-2.416a5.888,5.888,0,0,1-3.273-5.263c-.053-1.086.478-1.739,1.389-1.79.928-.052,1.483.5,1.61,1.589a3.4,3.4,0,0,0,6.644.917,3.365,3.365,0,0,0-2.65-4.344c-.752-.123-1.529-.134-2.262-.323a6.327,6.327,0,0,1-4.71-5.481,6.258,6.258,0,0,1,3.726-6.534,1.443,1.443,0,0,0,1.033-1.69,1.465,1.465,0,0,1,1.35-1.735,1.376,1.376,0,0,1,1.6,1.457c-.111,1.161.383,1.57,1.384,2a6.116,6.116,0,0,1,3.724,5.365,1.59,1.59,0,0,1-1.369,1.931c-.909.091-1.557-.543-1.684-1.649a3.347,3.347,0,0,0-3.6-3.23,3.408,3.408,0,0,0-3.188,3.4,3.455,3.455,0,0,0,3.41,3.387,6.439,6.439,0,0,1,1.792,12.625l-.438.155" fill="#808285"/>
  </g>
</svg>
